<?xml version="1.0" encoding="utf-8"?>
<!-- Generator: Adobe Illustrator 28.1.0, SVG Export Plug-In . SVG Version: 6.00 Build 0)  -->
<svg version="1.1" id="Calque_1" xmlns="http://www.w3.org/2000/svg" xmlns:xlink="http://www.w3.org/1999/xlink" x="0px" y="0px"
	 viewBox="0 0 48 48" style="enable-background:new 0 0 48 48;" xml:space="preserve">
<style type="text/css">
	.st0{fill-rule:evenodd;clip-rule:evenodd;}
</style>
<g>
	<path class="st0" d="M6.1,2.2c-0.5,0-0.9,0.3-1,0.8l-2.8,8.5c-0.1,0.3-0.1,0.5-0.1,0.8v3.4c0,1.9,1.4,3.5,3.1,3.5s3.1-1.6,3.1-3.5
		c0,1.9,1.4,3.5,3.1,3.5c1.7,0,3.1-1.6,3.1-3.5c0,1.9,1.4,3.5,3.1,3.5c1.7,0,3.1-1.6,3.1-3.5c0,1.9,1.4,3.5,3.1,3.5
		c1.7,0,3.1-1.6,3.1-3.5c0,1.9,1.4,3.5,3.1,3.5c1.7,0,3.1-1.6,3.1-3.5c0,1.9,1.4,3.5,3.1,3.5c1.7,0,3.1-1.6,3.1-3.5
		c0,1.9,1.4,3.5,3.1,3.5c1.7,0,3.1-1.6,3.1-3.5v-3.4c0-0.3,0-0.6-0.1-0.8L42.9,3c-0.2-0.5-0.6-0.8-1-0.8L6.1,2.2z"/>
	<path class="st0" d="M5.8,20.9v7.9H4c-0.3,0-0.6,0.3-0.6,0.6v1.2c0,0.3,0.3,0.6,0.6,0.6h40c0.3,0,0.6-0.3,0.6-0.6v-1.2
		c0-0.3-0.3-0.6-0.6-0.6h-1.8v-7.9c-0.9-0.1-1.7-0.5-2.4-1v8.9H8.2v-8.9C7.6,20.5,6.7,20.8,5.8,20.9z M40.3,17.9
		c0.1,0.2,0.2,0.3,0.4,0.4c0.4,0.4,0.9,0.6,1.5,0.7v-1.2H40.3z M5.8,19.1v-1.2h1.9c-0.1,0.2-0.2,0.3-0.4,0.4
		C6.9,18.7,6.4,19,5.8,19.1z M5.2,32.5c-0.3,0-0.6,0.3-0.6,0.6v11.5c0,0.7,0.5,1.2,1.2,1.2h36.4c0.7,0,1.2-0.5,1.2-1.2V33.1
		c0-0.3-0.3-0.6-0.6-0.6H5.2z"/>
	<path d="M9.4,25.8c0-0.3,0.3-0.6,0.6-0.6h3.6c0.3,0,0.6,0.3,0.6,0.6v2.4c0,0.3-0.3,0.6-0.6,0.6H10c-0.3,0-0.6-0.3-0.6-0.6V25.8z"/>
	<path d="M11.9,27c0-0.3,0.3-0.6,0.6-0.6h3.6c0.3,0,0.6,0.3,0.6,0.6v1.2c0,0.3-0.3,0.6-0.6,0.6h-3.6c-0.3,0-0.6-0.3-0.6-0.6V27z"/>
	<path d="M21.6,27c0,1-0.8,1.8-1.8,1.8c-1,0-1.8-0.8-1.8-1.8c0-1,0.8-1.8,1.8-1.8C20.8,25.2,21.6,26,21.6,27z"/>
</g>
</svg>
