<svg id="Calque_1" style="padding: 2px 0; margin-right: 5px;" data-name="Calque 1" xmlns="http://www.w3.org/2000/svg" height="22px" viewBox="0 0 48 48">
  <defs>
    <style>
      .cls-1 {
        fill-rule: evenodd;
      }

      .cls-1, .cls-2 {
        stroke-width: 0px;
      }
    </style>
  </defs>
  <g fill="#000">
  <path class="cls-1" d="M4.35,0c-.5,0-.95.35-1.13.88L.15,10.22c-.1.29-.15.6-.15.92v3.72c0,2.1,1.54,3.81,3.43,3.81s3.43-1.71,3.43-3.81c0,2.1,1.53,3.81,3.43,3.81s3.43-1.71,3.43-3.81c0,2.1,1.54,3.81,3.43,3.81s3.43-1.7,3.43-3.81c0,2.1,1.54,3.81,3.43,3.81s3.43-1.71,3.43-3.81c0,2.1,1.54,3.81,3.43,3.81s3.43-1.7,3.43-3.81c0,2.1,1.54,3.81,3.43,3.81s3.43-1.71,3.43-3.81c0,2.1,1.54,3.81,3.43,3.81s3.43-1.71,3.43-3.81v-3.72c0-.31-.05-.62-.15-.92l-3.08-9.35C44.6.35,44.15,0,43.65,0H4.35Z"/>
  <path class="cls-1" d="M4,20.64v8.7h-2c-.37,0-.67.3-.67.67v1.33c0,.37.3.67.67.67h44c.37,0,.67-.3.67-.67v-1.33c0-.37-.3-.67-.67-.67h-2v-8.7c-1.02-.11-1.92-.51-2.67-1.11v9.8H6.67v-9.8c-.74.6-1.65,1-2.67,1.11ZM41.97,17.33c.13.17.27.32.43.46.45.42,1,.7,1.61.82v-1.28h-2.03ZM4,18.61v-1.28h2.03c-.13.17-.27.32-.43.46-.45.42-1,.7-1.61.82ZM3.33,33.33c-.37,0-.67.3-.67.67v12.67c0,.74.6,1.33,1.33,1.33h40c.74,0,1.33-.6,1.33-1.33v-12.67c0-.37-.3-.67-.67-.67H3.33Z"/>
  <path class="cls-2" d="M8,26c0-.37.3-.67.67-.67h4c.37,0,.67.3.67.67v2.67c0,.37-.3.67-.67.67h-4c-.37,0-.67-.3-.67-.67v-2.67Z"/>
  <path class="cls-2" d="M10.67,27.33c0-.37.3-.67.67-.67h4c.37,0,.67.3.67.67v1.33c0,.37-.3.67-.67.67h-4c-.37,0-.67-.3-.67-.67v-1.33Z"/>
  <path class="cls-2" d="M21.33,27.33c0,1.1-.9,2-2,2s-2-.9-2-2,.9-2,2-2,2,.9,2,2Z"/>
  </g>
</svg>