<?xml version="1.0" encoding="UTF-8"?>
<svg id="Calque_1" data-name="Calque 1" xmlns="http://www.w3.org/2000/svg" viewBox="0 0 40 40">
  <defs>
    <style>
      .cls-1 {
        font-family: MyriadPro-Regular, 'Myriad Pro';
        font-size: 17.87px;
      }

      .cls-2 {
        stroke: #000;
        stroke-width: 1.5px;
      }

      .cls-3 {
        stroke-width: 0px;
      }
    </style>
  </defs>
  <g fill="#F1EBE1">
    <path class="cls-2" d="M2.73,13.45v19.87c0,2.19,1.72,3.97,3.84,3.97h26.89c2.12,0,3.84-1.78,3.84-3.97V13.45"/>
    <path class="cls-2" d="M36.31,1.53h-7.67l.96,9.93s1.92,1.99,4.8,1.99c2.07,0,3.48-1.02,4.11-1.6.25-.23.34-.58.29-.92l-1.35-8.4c-.09-.57-.57-1-1.14-1Z"/>
    <path class="cls-2" d="M28.64,1.53l.96,9.93s-1.92,1.99-4.8,1.99-4.8-1.99-4.8-1.99V1.53h8.64Z"/>
    <path class="cls-2" d="M20,1.53v9.93s-1.92,1.99-4.8,1.99-4.8-1.99-4.8-1.99l.96-9.93h8.64Z"/>
    <path class="cls-2" d="M11.36,1.53H3.69c-.56,0-1.04.42-1.14,1l-1.35,8.4c-.06.34.04.69.29.92.63.58,2.04,1.6,4.11,1.6,2.88,0,4.8-1.99,4.8-1.99l.96-9.93Z"/>
  </g>
   <g fill="#1C1C1B">
  <path class="cls-3" d="M19.99,15.44c-5.28,0-9.55,4.28-9.55,9.56s4.27,9.56,9.55,9.56,9.57-4.28,9.57-9.56-4.28-9.56-9.57-9.56ZM20,32.65c-4.23,0-7.65-3.42-7.65-7.65s3.42-7.65,7.65-7.65,7.65,3.42,7.65,7.65-3.42,7.65-7.65,7.65ZM19.79,20.22h-.06c-.38,0-.69.31-.69.69v4.51c0,.33.17.65.47.82l3.97,2.38c.33.19.75.1.94-.23.2-.33.1-.76-.24-.95l-3.7-2.2v-4.34c0-.38-.31-.69-.69-.69Z"/>
  <!-- <text class="cls-1" transform="translate(29.42 29.25)"><tspan x="0" y="0">?</tspan></text> -->
  </g>
</svg>